<?xml version="1.0" standalone="no"?>
<!DOCTYPE svg PUBLIC "-//W3C//DTD SVG 20010904//EN"
 "http://www.w3.org/TR/2001/REC-SVG-20010904/DTD/svg10.dtd">
<svg version="1.0" xmlns="http://www.w3.org/2000/svg"
 width="375.000000pt" height="375.000000pt" viewBox="0 0 375.000000 375.000000"
 preserveAspectRatio="xMidYMid meet">
<metadata>
Created by potrace 1.11, written by Peter Selinger 2001-2013
</metadata>
<g transform="translate(0.000000,375.000000) scale(0.100000,-0.100000)"
fill="#000000" stroke="none">
<path d="M0 3110 c0 -352 2 -640 4 -640 9 0 377 128 596 207 444 160 924 354
1196 483 88 41 104 46 108 32 2 -10 48 -213 101 -452 53 -239 99 -441 101
-449 3 -8 20 28 38 80 192 552 506 937 946 1162 179 92 319 141 550 192 l105
23 -1872 1 -1873 1 0 -640z"/>
<path d="M3738 3698 c-2 -18 -58 -324 -123 -680 l-120 -647 -63 -16 c-55 -14
-67 -14 -86 -2 -11 8 -48 24 -81 37 -51 20 -78 24 -175 23 -96 0 -130 -4 -203
-26 -228 -70 -378 -189 -471 -374 -93 -184 -118 -452 -70 -728 17 -99 144
-656 199 -874 31 -124 92 -337 110 -383 7 -17 -33 -18 -754 -18 -419 0 -761 2
-761 5 0 26 -354 1571 -420 1835 -84 333 -161 464 -308 521 -47 18 -78 23
-172 23 -63 1 -138 -2 -166 -7 l-51 -7 -10 42 c-8 30 -11 -324 -12 -1189 l-1
-1233 1875 0 1875 0 0 1865 c0 1026 -2 1865 -4 1865 -2 0 -6 -15 -8 -32z"/>
</g>
</svg>
