<?xml version="1.0" encoding="utf-8"?>
<!DOCTYPE svg PUBLIC "-//W3C//DTD SVG 1.1//EN" "http://www.w3.org/Graphics/SVG/1.1/DTD/svg11.dtd">
<svg version="1.1" xmlns="http://www.w3.org/2000/svg" xmlns:xlink="http://www.w3.org/1999/xlink" x="0px" y="0px"
	 width="75px" height="75px" viewBox="0 0 75 75" xml:space="preserve">
	<path fill="#e5760a" fill-rule="evenodd" clip-rule="evenodd" d="M14.962,40.497c-1.14-5.07-2.258-8.465-3.377-10.184
		c-1.541-2.214-3.862-3.308-7.006-3.308c-1.203,0-2.575,0.15-4.093,0.493L0,25.651c16.967-5.822,29.629-10.763,37.985-14.866
		l4.22,18.798C47.101,13.771,56.724,4.212,71.032,0.859C71.835,0.602,73.164,0.321,75,0l-5.065,27.606l-2.532,0.624
		c-2.49-1.569-5.339-1.978-8.547-1.225c-8.293,1.954-12.43,7.604-12.43,16.929c0,2.706,0.401,5.693,1.203,8.959l1.688,7.37
		c1.541,6.874,2.85,11.792,3.989,14.736H22.791c-0.317-1.719-0.802-4.017-1.456-6.874L14.962,40.497L14.962,40.497z"/>
</svg>
